# xmcd
#
# Track frame offsets:
#	150
#	12832
#	33080
#	47560
#	62757
#	79917
#	97300
#	113122
#	132702
#	147175
#	163362
#
# Disc length: 2361 seconds
#
# Revision: 1
# Processed by: cddbd v1.4PL0 Copyright (c) Steve Scherf et al.
# Submitted via: audiograbber 1.82.02
#
DISCID=9a09370b
DTITLE=Various Artist - 2003 Canadian Country Music Awards
DYEAR=2003
DGENRE=Country
TTITLE0=Emerson Drive - Fall Into Me
TTITLE1=Doc Walker - Rocket Girl
TTITLE2=Gil Grand - Cry A Little
TTITLE3=Adam Gregory (With Billy Ray Cyrus) - When I Leave This House
TTITLE4=Lisa Brokop - Whiskey And Wine
TTITLE5=Chris Cummings - Betty
TTITLE6=Kathleen Edwards - Mercury
TTITLE7=Jimmy Rankin - Wasted
TTITLE8=The Corb Lund Band - Roughest Neck Around
TTITLE9=The Ennis Sisters - Without You
TTITLE10=Anne Murray - A Fool Such As I (Now And Then)
EXTD=
EXTT0=
EXTT1=
EXTT2=
EXTT3=
EXTT4=
EXTT5=
EXTT6=
EXTT7=
EXTT8=
EXTT9=
EXTT10=
PLAYORDER=
